<svg width="1543" height="512" viewBox="0 0 1543 512" fill="none" xmlns="http://www.w3.org/2000/svg">
<path d="M273 83V189.917C273 213.502 244.082 224.858 228.034 207.575L160.55 134.9M446 256H339.083C315.498 256 304.142 227.082 321.425 211.034L394.1 143.55M273 429V322.083C273 298.498 301.917 287.142 317.966 304.425L385.45 377.1M100 256L206.917 256C230.502 256 241.858 284.918 224.575 300.966L151.9 368.45" stroke="#175CD3" stroke-width="22"/>
<path d="M541.269 316V195.3H563.369V309.2L551.299 296.79H620.659V316H541.269ZM663.62 318.04C654.44 318.04 647.13 315.037 641.69 309.03C636.363 302.91 633.7 294.467 633.7 283.7V225.22H655.46V278.26C655.46 285.853 656.706 291.463 659.2 295.09C661.806 298.603 665.716 300.36 670.93 300.36C676.823 300.36 681.356 298.433 684.53 294.58C687.816 290.613 689.46 284.89 689.46 277.41V225.22H711.22V316H691.33L690.82 291.01L693.54 291.86C692.18 300.473 688.95 306.99 683.85 311.41C678.75 315.83 672.006 318.04 663.62 318.04ZM735.135 316V225.22H754.855L755.535 247.49L753.495 246.47C754.515 241.597 756.272 237.46 758.765 234.06C761.372 230.547 764.489 227.883 768.115 226.07C771.855 224.143 775.935 223.18 780.355 223.18C788.062 223.18 794.295 225.39 799.055 229.81C803.815 234.117 806.819 240.067 808.065 247.66H805.175C806.195 242.333 807.952 237.913 810.445 234.4C812.939 230.773 816.055 227.997 819.795 226.07C823.649 224.143 827.955 223.18 832.715 223.18C838.949 223.18 844.332 224.54 848.865 227.26C853.399 229.867 856.855 233.72 859.235 238.82C861.729 243.92 862.975 250.21 862.975 257.69V316H841.215V263.3C841.215 255.82 839.912 250.21 837.305 246.47C834.812 242.73 830.959 240.86 825.745 240.86C822.232 240.86 819.229 241.767 816.735 243.58C814.242 245.393 812.315 248.057 810.955 251.57C809.709 254.97 809.085 259.107 809.085 263.98V316H788.855V263.98C788.855 256.5 787.722 250.777 785.455 246.81C783.189 242.843 779.279 240.86 773.725 240.86C770.212 240.86 767.209 241.767 764.715 243.58C762.335 245.393 760.409 248.057 758.935 251.57C757.575 254.97 756.895 259.107 756.895 263.98V316H735.135ZM885.213 316V225.22H906.973V316H885.213ZM884.873 213.15V193.77H907.483V213.15H884.873ZM932.196 316V225.22H951.916L952.766 250.72L950.216 249.7C951.123 243.353 952.993 238.253 955.826 234.4C958.659 230.547 962.116 227.713 966.196 225.9C970.276 224.087 974.753 223.18 979.626 223.18C986.313 223.18 991.923 224.653 996.456 227.6C1001.1 230.547 1004.62 234.627 1007 239.84C1009.38 244.94 1010.57 250.89 1010.57 257.69V316H988.806V264.66C988.806 259.56 988.296 255.253 987.276 251.74C986.256 248.227 984.556 245.563 982.176 243.75C979.909 241.823 976.849 240.86 972.996 240.86C967.216 240.86 962.569 242.9 959.056 246.98C955.656 251.06 953.956 256.953 953.956 264.66V316H932.196ZM1071.58 318.04C1062.62 318.04 1054.75 316.113 1047.95 312.26C1041.26 308.293 1036.05 302.74 1032.31 295.6C1028.68 288.46 1026.87 280.13 1026.87 270.61C1026.87 260.977 1028.68 252.647 1032.31 245.62C1036.05 238.48 1041.26 232.983 1047.95 229.13C1054.75 225.163 1062.62 223.18 1071.58 223.18C1080.53 223.18 1088.35 225.163 1095.04 229.13C1101.72 232.983 1106.88 238.48 1110.51 245.62C1114.25 252.647 1116.12 260.977 1116.12 270.61C1116.12 280.13 1114.25 288.46 1110.51 295.6C1106.88 302.74 1101.72 308.293 1095.04 312.26C1088.35 316.113 1080.53 318.04 1071.58 318.04ZM1071.58 300.36C1078.6 300.36 1083.99 297.753 1087.73 292.54C1091.58 287.327 1093.51 280.017 1093.51 270.61C1093.51 261.317 1091.58 254.063 1087.73 248.85C1083.99 243.523 1078.6 240.86 1071.58 240.86C1064.55 240.86 1059.11 243.523 1055.26 248.85C1051.4 254.063 1049.48 261.317 1049.48 270.61C1049.48 280.017 1051.4 287.327 1055.26 292.54C1059.11 297.753 1064.55 300.36 1071.58 300.36ZM1169.8 318.04C1160.85 318.04 1153.31 316.737 1147.19 314.13C1141.18 311.523 1136.54 307.897 1133.25 303.25C1129.96 298.603 1128.09 293.333 1127.64 287.44L1149.91 286.42C1150.7 291.18 1152.69 294.863 1155.86 297.47C1159.03 300.077 1163.74 301.38 1169.97 301.38C1175.07 301.38 1179.04 300.587 1181.87 299C1184.82 297.3 1186.29 294.693 1186.29 291.18C1186.29 289.14 1185.78 287.44 1184.76 286.08C1183.74 284.72 1181.81 283.53 1178.98 282.51C1176.15 281.49 1171.95 280.47 1166.4 279.45C1157.11 277.863 1149.8 275.937 1144.47 273.67C1139.14 271.29 1135.35 268.343 1133.08 264.83C1130.93 261.317 1129.85 256.953 1129.85 251.74C1129.85 243.24 1133.08 236.383 1139.54 231.17C1146.11 225.843 1155.69 223.18 1168.27 223.18C1176.43 223.18 1183.29 224.54 1188.84 227.26C1194.39 229.867 1198.7 233.493 1201.76 238.14C1204.93 242.673 1206.92 247.887 1207.71 253.78L1185.78 254.8C1185.21 251.74 1184.19 249.077 1182.72 246.81C1181.25 244.543 1179.26 242.843 1176.77 241.71C1174.28 240.463 1171.33 239.84 1167.93 239.84C1162.83 239.84 1158.98 240.86 1156.37 242.9C1153.76 244.94 1152.46 247.66 1152.46 251.06C1152.46 253.44 1153.03 255.423 1154.16 257.01C1155.41 258.597 1157.39 259.9 1160.11 260.92C1162.83 261.827 1166.46 262.677 1170.99 263.47C1180.51 264.943 1187.99 266.87 1193.43 269.25C1198.98 271.517 1202.89 274.463 1205.16 278.09C1207.54 281.603 1208.73 285.853 1208.73 290.84C1208.73 296.62 1207.09 301.55 1203.8 305.63C1200.63 309.71 1196.09 312.827 1190.2 314.98C1184.42 317.02 1177.62 318.04 1169.8 318.04ZM1225.71 316V225.22H1247.47V316H1225.71ZM1225.37 213.15V193.77H1247.98V213.15H1225.37ZM1302.1 316C1293.03 316 1286.35 313.903 1282.04 309.71C1277.85 305.517 1275.75 298.943 1275.75 289.99V203.97H1297.51V287.95C1297.51 292.143 1298.42 295.09 1300.23 296.79C1302.04 298.377 1304.88 299.17 1308.73 299.17H1321.48V316H1302.1ZM1261.47 242.05V225.22H1321.48V242.05H1261.47ZM1342.74 341.5V324.67H1354.3C1357.24 324.67 1359.4 324.217 1360.76 323.31C1362.23 322.403 1363.36 320.873 1364.16 318.72L1366.71 312.43H1360.42L1327.95 225.22H1350.56L1373.34 292.03L1395.1 225.22H1417.71L1382.18 325.52C1380.14 331.187 1377.25 335.267 1373.51 337.76C1369.88 340.253 1364.78 341.5 1358.21 341.5H1342.74Z" fill="#175CD3"/>
</svg>
